PathFileType	3	(X/Y/Z)	/mnt/e/Research/Bio/Osim_support/Data/PSU100/10hz/Subject7/trcs/Take_2_10hz.trc
DataRate	CameraRate	NumFrames	NumMarkers	Units	OrigDataRate	OrigDataStartFrame	OrigNumFrames
50.0	50.0	6	39	mm	50.0	1688	16876	
Frame#	Time	LFHD			RFHD			LBHD			RBHD			C7			T10			CLAV			STRN			RBAK			LSHO			LUPA			LELB			LFRM			LWRA			LWRB			LFIN			RSHO			RUPA			RELB			RFRM			RWRA			RWRB			RFIN			LASI			RASI			LPSI			RPSI			LTHI			LKNE			LTIB			LANK			LHEE			LTOE			RTHI			RKNE			RTIB			RANK			RHEE			RTOE	
	X1	Y1	Z1	X2	Y2	Z2	X3	Y3	Z3	X4	Y4	Z4	X5	Y5	Z5	X6	Y6	Z6	X7	Y7	Z7	X8	Y8	Z8	X9	Y9	Z9	X10	Y10	Z10	X11	Y11	Z11	X12	Y12	Z12	X13	Y13	Z13	X14	Y14	Z14	X15	Y15	Z15	X16	Y16	Z16	X17	Y17	Z17	X18	Y18	Z18	X19	Y19	Z19	X20	Y20	Z20	X21	Y21	Z21	X22	Y22	Z22	X23	Y23	Z23	X24	Y24	Z24	X25	Y25	Z25	X26	Y26	Z26	X27	Y27	Z27	X28	Y28	Z28	X29	Y29	Z29	X30	Y30	Z30	X31	Y31	Z31	X32	Y32	Z32	X33	Y33	Z33	X34	Y34	Z34	X35	Y35	Z35	X36	Y36	Z36	X37	Y37	Z37	X38	Y38	Z38	X39	Y39	Z39
1689	33.76000	714.35600	1425.93000	85.95440	658.23800	1420.89000	-0.05991	863.47700	1396.55000	-23.11800	794.97500	1389.57000	-100.95700	846.94100	1252.88000	-29.24920	962.95900	922.24200	-26.14940	731.89800	1156.98000	-19.51680	701.66800	1002.42000	-31.63480	943.77000	1132.12000	-95.38160	814.50000	1218.42000	134.02400	751.61600	1151.48000	260.98400	661.75300	1115.69000	352.81200	546.64700	1207.47000	368.66800	465.31200	1298.63000	276.19800	451.50000	1313.88000	362.96300	433.74900	1375.81000	315.23500	815.54200	1256.87000	-131.93900	817.68600	1264.01000	-305.13300	823.18000	1278.01000	-406.54100	786.63900	1321.00000	-548.35400	645.06500	1336.17000	-630.44300	720.85700	1360.95000	-674.64800	660.24300	1338.15000	-727.29400	811.73600	718.66900	82.68880	792.98900	765.85000	-182.33000	956.14400	755.53900	81.25690	965.44600	800.81000	-172.42200	782.54800	613.82900	222.93200	699.50300	477.74900	297.38600	689.21400	276.86900	322.44900	639.24300	85.44230	316.17500	671.35900	29.33310	225.40200	455.23800	41.15080	386.08800	793.45800	584.40900	-287.90300	806.42700	364.43300	-339.91800	957.95700	213.43500	-332.77800	1084.48000	71.98120	-288.36100	1135.25000	19.36150	-209.27000	911.29800	20.21530	-356.93200
1690	33.78000	695.67800	1420.63000	113.56800	637.80400	1416.00000	28.80840	842.33600	1390.22000	1.45481	772.22600	1383.71000	-74.89830	825.30300	1247.76000	-3.41214	943.53200	918.41700	0.13602	710.51500	1151.45000	6.75654	681.17600	995.76500	-6.32813	922.63200	1127.95000	-68.82600	791.87900	1211.87000	161.18500	731.05800	1141.89000	288.12100	643.26600	1103.04000	380.14000	527.83000	1193.25000	402.25600	436.84000	1280.29000	313.47800	430.77400	1297.28000	401.34100	410.89100	1357.94000	353.23000	793.88900	1251.85000	-105.07700	798.16800	1259.74000	-278.47400	805.48100	1273.96000	-379.67300	771.05000	1317.89000	-521.70400	630.61400	1334.54000	-605.18600	707.05500	1359.15000	-648.40400	647.11400	1336.96000	-702.03300	794.42100	712.75600	107.47100	777.02700	760.09500	-157.29100	938.28400	752.53900	107.84400	949.09500	798.25600	-145.60600	764.81200	612.38300	248.55400	679.50300	478.00100	323.15100	676.69200	276.99200	337.47100	636.35400	84.27390	318.59300	670.30700	29.70470	225.79300	454.48700	38.99110	387.23100	786.04900	583.72600	-269.93800	806.03200	366.79600	-331.91800	958.72400	216.34700	-328.07100	1084.92000	73.19760	-287.59100	1135.88000	19.35890	-210.61200	911.90300	19.66890	-356.95700
1691	33.80000	676.01900	1415.19000	140.22700	616.81200	1411.07000	56.55880	820.85400	1384.55000	25.77440	749.52700	1378.53000	-49.43650	803.54500	1242.83000	21.44000	924.01900	914.95200	25.60850	689.01400	1146.15000	31.78900	660.75700	989.13300	17.84310	901.36200	1123.98000	-43.30270	768.63500	1205.19000	187.40300	710.12700	1132.11000	314.34900	624.72200	1089.95000	406.60100	509.31400	1178.71000	433.93100	409.69800	1261.02000	348.75800	410.69000	1280.45000	436.93800	388.49600	1339.12000	387.93400	772.07600	1247.03000	-79.71750	778.45900	1255.38000	-253.23800	787.33900	1269.46000	-354.44300	755.24100	1313.81000	-496.82300	615.92300	1331.26000	-582.11500	693.10300	1355.63000	-624.31400	633.92900	1333.69000	-678.72000	776.91600	707.40900	131.72300	761.18100	754.31600	-132.65900	920.14100	750.28200	134.01200	932.54400	795.92700	-119.35100	746.42000	610.42200	273.01900	659.62200	476.56400	347.18800	664.92500	276.14700	351.39800	634.15500	83.20670	320.50000	669.43200	30.01590	225.73300	454.06500	37.44800	387.86100	778.46500	583.07300	-250.87100	806.10500	369.82400	-322.20800	960.00400	219.46400	-323.23300	1085.98000	74.34150	-288.12800	1137.95000	19.44190	-213.64900	912.28500	19.61350	-356.94300
1692	33.82000	655.73400	1409.94000	166.28400	595.57100	1406.02000	83.12170	799.29400	1380.12000	50.10280	727.27500	1374.28000	-24.42020	782.58500	1238.29000	45.66240	904.28100	911.56100	50.28990	668.13400	1141.51000	55.97050	640.35800	983.00800	40.97220	880.75500	1120.11000	-18.46670	746.24800	1199.20000	212.84000	689.58700	1123.17000	339.58900	606.15700	1078.21000	431.85700	490.85400	1165.34000	464.34100	382.84800	1242.27000	384.17100	390.40000	1264.51000	470.63300	366.43100	1321.32000	421.27400	751.03000	1242.46000	-55.33940	759.19300	1251.07000	-228.99000	769.89000	1265.24000	-329.92200	739.85600	1309.75000	-472.77700	601.46400	1328.48000	-559.34400	679.27900	1352.34000	-600.76300	620.59700	1330.88000	-655.81800	758.31400	702.25900	154.44500	745.18500	749.42200	-109.57800	900.87300	747.95900	159.16800	915.77000	794.12200	-93.93510	727.89100	607.04800	296.06700	640.14600	473.33500	369.63200	653.33500	274.19900	364.54900	632.44700	82.18780	321.93600	668.89100	30.37940	225.63700	453.58800	35.68230	388.13900	772.01300	583.80800	-233.15900	808.51400	374.68500	-313.16300	963.45000	223.55200	-319.28400	1087.81000	75.62780	-289.64900	1140.47000	19.96780	-217.02100	912.59000	19.58120	-356.88800
1693	33.84000	636.58100	1405.62000	190.23400	575.99300	1401.59000	107.36800	779.60100	1375.81000	73.41440	707.21900	1369.88000	-0.78068	763.14200	1233.87000	69.30630	884.79800	907.51300	74.01880	648.49700	1137.35000	79.38390	620.53700	977.57600	63.19350	861.50700	1115.96000	5.98353	725.00300	1193.51000	237.42300	669.66700	1114.97000	363.80900	587.64700	1067.68000	455.69600	472.19000	1152.91000	493.38600	356.53200	1224.93000	418.99400	369.77600	1249.33000	503.27300	343.49200	1304.16000	453.92300	731.91600	1238.08000	-31.70700	742.43000	1246.43000	-205.49400	754.93100	1260.16000	-306.32400	727.43600	1304.70000	-449.60200	590.06900	1325.30000	-537.40600	668.54200	1348.15000	-578.20800	610.31500	1327.28000	-633.73300	739.64400	696.95100	175.88300	728.44300	745.08600	-87.63270	881.64600	745.12400	182.59900	898.27800	792.40200	-70.26340	708.92500	602.26300	317.07300	620.49700	468.59400	389.80100	640.66700	271.25700	376.12900	630.05100	81.47960	323.28100	668.25300	30.93630	225.62800	452.99200	33.88010	388.64700	764.64600	584.07600	-215.47400	812.17600	379.50000	-303.21900	967.83600	227.46800	-316.15900	1090.90000	76.64960	-293.67600	1144.74000	19.93300	-224.30300	912.94200	19.69130	-356.94000
1694	33.86000	619.16000	1402.74000	212.24300	558.43500	1398.78000	129.44900	761.82400	1372.04000	95.20130	689.25200	1366.25000	21.23330	744.86700	1230.34000	91.58180	866.18000	904.15500	96.42490	629.90700	1134.13000	101.50800	601.74800	973.15200	84.68430	843.15900	1112.34000	28.95040	705.33000	1189.19000	260.59300	650.95300	1108.69000	386.68200	570.15700	1059.58000	478.32100	454.05100	1142.53000	520.19600	332.31600	1210.26000	450.50500	349.74200	1236.12000	533.50000	321.15200	1288.90000	483.79600	714.02700	1234.59000	-9.43580	727.48600	1242.08000	-183.58000	742.31000	1255.04000	-284.22600	717.83700	1299.05000	-428.24700	582.45800	1320.94000	-518.53300	661.89800	1342.50000	-558.15500	604.51600	1321.87000	-614.56400	722.15100	692.45100	196.43500	710.93100	742.13200	-67.20690	863.57200	742.66900	204.13000	880.75800	791.54000	-48.22510	691.11100	597.24200	336.65700	602.72400	462.94500	407.89400	629.95100	267.97500	386.07700	628.14500	80.97840	324.69500	667.68700	31.35560	225.46300	452.74300	33.03300	389.03100	756.57300	582.91300	-196.35500	815.91000	382.84300	-288.87200	972.52500	230.44500	-312.87800	1095.00000	77.70340	-301.05400	1151.07000	18.96150	-236.39700	914.33500	19.88170	-357.23900
